<svg id="visual" viewBox="0 0 1366 768" width="1366" height="768" xmlns="http://www.w3.org/2000/svg" xmlns:xlink="http://www.w3.org/1999/xlink" version="1.1"><rect x="0" y="0" width="1366" height="768" fill="#FFFFFF"></rect><defs><linearGradient id="grad1_0" x1="43.8%" y1="0%" x2="100%" y2="100%"><stop offset="14.427083333333334%" stop-color="#6200a3" stop-opacity="1"></stop><stop offset="85.57291666666667%" stop-color="#6200a3" stop-opacity="1"></stop></linearGradient></defs><defs><linearGradient id="grad1_1" x1="43.8%" y1="0%" x2="100%" y2="100%"><stop offset="14.427083333333334%" stop-color="#6200a3" stop-opacity="1"></stop><stop offset="85.57291666666667%" stop-color="#7c35b1" stop-opacity="1"></stop></linearGradient></defs><defs><linearGradient id="grad1_2" x1="43.8%" y1="0%" x2="100%" y2="100%"><stop offset="14.427083333333334%" stop-color="#9457be" stop-opacity="1"></stop><stop offset="85.57291666666667%" stop-color="#7c35b1" stop-opacity="1"></stop></linearGradient></defs><defs><linearGradient id="grad1_3" x1="43.8%" y1="0%" x2="100%" y2="100%"><stop offset="14.427083333333334%" stop-color="#9457be" stop-opacity="1"></stop><stop offset="85.57291666666667%" stop-color="#ab78cb" stop-opacity="1"></stop></linearGradient></defs><defs><linearGradient id="grad1_4" x1="43.8%" y1="0%" x2="100%" y2="100%"><stop offset="14.427083333333334%" stop-color="#c199d9" stop-opacity="1"></stop><stop offset="85.57291666666667%" stop-color="#ab78cb" stop-opacity="1"></stop></linearGradient></defs><defs><linearGradient id="grad1_5" x1="43.8%" y1="0%" x2="100%" y2="100%"><stop offset="14.427083333333334%" stop-color="#c199d9" stop-opacity="1"></stop><stop offset="85.57291666666667%" stop-color="#d6bbe6" stop-opacity="1"></stop></linearGradient></defs><defs><linearGradient id="grad1_6" x1="43.8%" y1="0%" x2="100%" y2="100%"><stop offset="14.427083333333334%" stop-color="#ebddf2" stop-opacity="1"></stop><stop offset="85.57291666666667%" stop-color="#d6bbe6" stop-opacity="1"></stop></linearGradient></defs><defs><linearGradient id="grad1_7" x1="43.8%" y1="0%" x2="100%" y2="100%"><stop offset="14.427083333333334%" stop-color="#ebddf2" stop-opacity="1"></stop><stop offset="85.57291666666667%" stop-color="#ffffff" stop-opacity="1"></stop></linearGradient></defs><defs><linearGradient id="grad2_0" x1="0%" y1="0%" x2="56.2%" y2="100%"><stop offset="14.427083333333334%" stop-color="#6200a3" stop-opacity="1"></stop><stop offset="85.57291666666667%" stop-color="#6200a3" stop-opacity="1"></stop></linearGradient></defs><defs><linearGradient id="grad2_1" x1="0%" y1="0%" x2="56.2%" y2="100%"><stop offset="14.427083333333334%" stop-color="#7c35b1" stop-opacity="1"></stop><stop offset="85.57291666666667%" stop-color="#6200a3" stop-opacity="1"></stop></linearGradient></defs><defs><linearGradient id="grad2_2" x1="0%" y1="0%" x2="56.2%" y2="100%"><stop offset="14.427083333333334%" stop-color="#7c35b1" stop-opacity="1"></stop><stop offset="85.57291666666667%" stop-color="#9457be" stop-opacity="1"></stop></linearGradient></defs><defs><linearGradient id="grad2_3" x1="0%" y1="0%" x2="56.2%" y2="100%"><stop offset="14.427083333333334%" stop-color="#ab78cb" stop-opacity="1"></stop><stop offset="85.57291666666667%" stop-color="#9457be" stop-opacity="1"></stop></linearGradient></defs><defs><linearGradient id="grad2_4" x1="0%" y1="0%" x2="56.2%" y2="100%"><stop offset="14.427083333333334%" stop-color="#ab78cb" stop-opacity="1"></stop><stop offset="85.57291666666667%" stop-color="#c199d9" stop-opacity="1"></stop></linearGradient></defs><defs><linearGradient id="grad2_5" x1="0%" y1="0%" x2="56.2%" y2="100%"><stop offset="14.427083333333334%" stop-color="#d6bbe6" stop-opacity="1"></stop><stop offset="85.57291666666667%" stop-color="#c199d9" stop-opacity="1"></stop></linearGradient></defs><defs><linearGradient id="grad2_6" x1="0%" y1="0%" x2="56.2%" y2="100%"><stop offset="14.427083333333334%" stop-color="#d6bbe6" stop-opacity="1"></stop><stop offset="85.57291666666667%" stop-color="#ebddf2" stop-opacity="1"></stop></linearGradient></defs><defs><linearGradient id="grad2_7" x1="0%" y1="0%" x2="56.2%" y2="100%"><stop offset="14.427083333333334%" stop-color="#ffffff" stop-opacity="1"></stop><stop offset="85.57291666666667%" stop-color="#ebddf2" stop-opacity="1"></stop></linearGradient></defs><g transform="translate(1366, 0)"><path d="M0 422.4C-63.3 393.7 -126.6 365 -192.5 333.4C-258.4 301.8 -327 267.3 -365.8 211.2C-404.6 155.1 -413.5 77.6 -422.4 0L0 0Z" fill="#f5eef9"></path><path d="M0 369.6C-55.4 344.5 -110.7 319.4 -168.4 291.7C-226.1 264.1 -286.2 233.9 -320.1 184.8C-354 135.7 -361.8 67.9 -369.6 0L0 0Z" fill="#e0ccec"></path><path d="M0 316.8C-47.5 295.3 -94.9 273.8 -144.4 250.1C-193.8 226.4 -245.3 200.4 -274.4 158.4C-303.4 116.4 -310.1 58.2 -316.8 0L0 0Z" fill="#cbaadf"></path><path d="M0 264C-39.5 246.1 -79.1 228.1 -120.3 208.4C-161.5 188.6 -204.4 167 -228.6 132C-252.9 97 -258.4 48.5 -264 0L0 0Z" fill="#b689d2"></path><path d="M0 211.2C-31.6 196.9 -63.3 182.5 -96.2 166.7C-129.2 150.9 -163.5 133.6 -182.9 105.6C-202.3 77.6 -206.7 38.8 -211.2 0L0 0Z" fill="#a068c5"></path><path d="M0 158.4C-23.7 147.6 -47.5 136.9 -72.2 125C-96.9 113.2 -122.6 100.2 -137.2 79.2C-151.7 58.2 -155.1 29.1 -158.4 0L0 0Z" fill="#8847b7"></path><path d="M0 105.6C-15.8 98.4 -31.6 91.3 -48.1 83.4C-64.6 75.5 -81.8 66.8 -91.5 52.8C-101.1 38.8 -103.4 19.4 -105.6 0L0 0Z" fill="#6f20aa"></path><path d="M0 52.8C-7.9 49.2 -15.8 45.6 -24.1 41.7C-32.3 37.7 -40.9 33.4 -45.7 26.4C-50.6 19.4 -51.7 9.7 -52.8 0L0 0Z" fill="#6200a3"></path></g><g transform="translate(0, 768)"><path d="M0 -422.4C66.2 -398.8 132.4 -375.2 198 -342.9C263.6 -310.7 328.5 -269.8 365.8 -211.2C403.1 -152.6 412.8 -76.3 422.4 0L0 0Z" fill="#f5eef9"></path><path d="M0 -369.6C57.9 -348.9 115.9 -328.3 173.2 -300.1C230.6 -271.9 287.5 -236.1 320.1 -184.8C352.7 -133.5 361.2 -66.8 369.6 0L0 0Z" fill="#e0ccec"></path><path d="M0 -316.8C49.7 -299.1 99.3 -281.4 148.5 -257.2C197.7 -233 246.4 -202.3 274.4 -158.4C302.3 -114.5 309.6 -57.2 316.8 0L0 0Z" fill="#cbaadf"></path><path d="M0 -264C41.4 -249.2 82.8 -234.5 123.7 -214.3C164.7 -194.2 205.3 -168.6 228.6 -132C251.9 -95.4 258 -47.7 264 0L0 0Z" fill="#b689d2"></path><path d="M0 -211.2C33.1 -199.4 66.2 -187.6 99 -171.5C131.8 -155.3 164.3 -134.9 182.9 -105.6C201.6 -76.3 206.4 -38.2 211.2 0L0 0Z" fill="#a068c5"></path><path d="M0 -158.4C24.8 -149.5 49.7 -140.7 74.2 -128.6C98.8 -116.5 123.2 -101.2 137.2 -79.2C151.2 -57.2 154.8 -28.6 158.4 0L0 0Z" fill="#8847b7"></path><path d="M0 -105.6C16.6 -99.7 33.1 -93.8 49.5 -85.7C65.9 -77.7 82.1 -67.4 91.5 -52.8C100.8 -38.2 103.2 -19.1 105.6 0L0 0Z" fill="#6f20aa"></path><path d="M0 -52.8C8.3 -49.8 16.6 -46.9 24.7 -42.9C32.9 -38.8 41.1 -33.7 45.7 -26.4C50.4 -19.1 51.6 -9.5 52.8 0L0 0Z" fill="#6200a3"></path></g></svg>