<svg id="visual" viewBox="0 0 1366 768" width="1366" height="768" xmlns="http://www.w3.org/2000/svg" xmlns:xlink="http://www.w3.org/1999/xlink" version="1.1"><g transform="translate(1282.3134563477822 -41.06806488808445)"><path d="M626.5 -559C831.3 -574.8 1030.2 -395.7 991 -231.9C951.9 -68 674.7 80.8 524.4 266.8C374.1 452.8 350.7 676 284.5 637.8C218.2 599.5 109.1 299.8 -23.4 194.9C-155.9 90 -311.8 180 -486.2 149.2C-660.7 118.5 -853.8 -33.1 -825.9 -137.7C-798 -242.3 -549.1 -300 -374.6 -289.6C-200.1 -279.2 -100.1 -200.6 55.4 -266.6C210.8 -332.6 421.7 -543.2 626.5 -559" fill="#7100cf"></path></g></svg>