<svg id="visual" viewBox="0 0 1366 768" width="1366" height="768" xmlns="http://www.w3.org/2000/svg" xmlns:xlink="http://www.w3.org/1999/xlink" version="1.1"><path d="M769 768L758.8 736C748.7 704 728.3 640 739.2 576C750 512 792 448 832.7 384C873.3 320 912.7 256 899.3 192C886 128 820 64 787 32L754 0L1366 0L1366 32C1366 64 1366 128 1366 192C1366 256 1366 320 1366 384C1366 448 1366 512 1366 576C1366 640 1366 704 1366 736L1366 768Z" fill="#200663"></path><path d="M934 768L928.3 736C922.7 704 911.3 640 908 576C904.7 512 909.3 448 906.7 384C904 320 894 256 923.7 192C953.3 128 1022.7 64 1057.3 32L1092 0L1366 0L1366 32C1366 64 1366 128 1366 192C1366 256 1366 320 1366 384C1366 448 1366 512 1366 576C1366 640 1366 704 1366 736L1366 768Z" fill="#3907ae"></path><path d="M1194 768L1177 736C1160 704 1126 640 1105.8 576C1085.7 512 1079.3 448 1091 384C1102.7 320 1132.3 256 1153.7 192C1175 128 1188 64 1194.5 32L1201 0L1366 0L1366 32C1366 64 1366 128 1366 192C1366 256 1366 320 1366 384C1366 448 1366 512 1366 576C1366 640 1366 704 1366 736L1366 768Z" fill="#5500ff"></path></svg>